<svg width="56" height="39" viewBox="0 0 56 39" fill="none" xmlns="http://www.w3.org/2000/svg">
                      <path d="M8.67363 16.8074C11.6927 16.8074 14.1472 14.3398 14.1472 11.3048C14.1472 8.26983 11.6927 5.80229 8.67363 5.80229C5.65461 5.80229 3.20005 8.26983 3.20005 11.3048C3.20005 14.3398 5.65461 16.8074 8.67363 16.8074ZM46.9887 16.8074C50.0077 16.8074 52.4623 14.3398 52.4623 11.3048C52.4623 8.26983 50.0077 5.80229 46.9887 5.80229C43.9697 5.80229 41.5151 8.26983 41.5151 11.3048C41.5151 14.3398 43.9697 16.8074 46.9887 16.8074ZM49.7255 19.5586H44.2519C42.7467 19.5586 41.3868 20.1691 40.3947 21.1578C43.8414 23.0579 46.2874 26.4884 46.8177 30.5637H52.4623C53.9761 30.5637 55.1991 29.3343 55.1991 27.8125V25.0612C55.1991 22.0262 52.7445 19.5586 49.7255 19.5586ZM27.8312 19.5586C33.1251 19.5586 37.4099 15.2512 37.4099 9.92919C37.4099 4.6072 33.1251 0.299744 27.8312 0.299744C22.5372 0.299744 18.2524 4.6072 18.2524 9.92919C18.2524 15.2512 22.5372 19.5586 27.8312 19.5586ZM34.3995 22.3099H33.6896C31.9107 23.1697 29.9351 23.6856 27.8312 23.6856C25.7273 23.6856 23.7602 23.1697 21.9727 22.3099H21.2629C15.8235 22.3099 11.4104 26.7463 11.4104 32.2145V34.6906C11.4104 36.969 13.2492 38.8175 15.5156 38.8175H40.1467C42.4131 38.8175 44.2519 36.969 44.2519 34.6906V32.2145C44.2519 26.7463 39.8388 22.3099 34.3995 22.3099ZM15.2676 21.1578C14.2755 20.1691 12.9157 19.5586 11.4104 19.5586H5.93684C2.91782 19.5586 0.463257 22.0262 0.463257 25.0612V27.8125C0.463257 29.3343 1.68626 30.5637 3.20005 30.5637H8.83613C9.37493 26.4884 11.8209 23.0579 15.2676 21.1578Z" fill="#FA6E57" />
                    </svg>