<svg width="207" height="133" viewBox="0 0 207 133" fill="none" xmlns="http://www.w3.org/2000/svg">
<path d="M17.466 129.126C16.6727 129.126 15.9587 129.023 15.324 128.818C14.6893 128.613 14.1387 128.323 13.672 127.95L14.12 126.914C14.4467 127.157 14.778 127.362 15.114 127.53C15.45 127.689 15.8093 127.81 16.192 127.894C16.584 127.969 17.0087 128.006 17.466 128.006C18.278 128.006 18.8753 127.861 19.258 127.572C19.65 127.273 19.846 126.881 19.846 126.396C19.846 125.976 19.7107 125.654 19.44 125.43C19.1693 125.206 18.698 125.029 18.026 124.898L16.528 124.59C15.6227 124.403 14.946 124.1 14.498 123.68C14.0593 123.251 13.84 122.672 13.84 121.944C13.84 121.356 13.994 120.843 14.302 120.404C14.6193 119.956 15.0533 119.611 15.604 119.368C16.164 119.125 16.8173 119.004 17.564 119.004C18.2547 119.004 18.894 119.107 19.482 119.312C20.07 119.517 20.5647 119.821 20.966 120.222L20.518 121.216C20.098 120.833 19.6453 120.558 19.16 120.39C18.684 120.213 18.1427 120.124 17.536 120.124C16.7987 120.124 16.2153 120.283 15.786 120.6C15.3567 120.917 15.142 121.347 15.142 121.888C15.142 122.317 15.2773 122.658 15.548 122.91C15.8187 123.153 16.2667 123.339 16.892 123.47L18.39 123.764C19.342 123.951 20.0373 124.245 20.476 124.646C20.924 125.047 21.148 125.603 21.148 126.312C21.148 126.872 20.9987 127.367 20.7 127.796C20.4013 128.216 19.9767 128.543 19.426 128.776C18.8753 129.009 18.222 129.126 17.466 129.126ZM25.446 129.126C24.7087 129.126 24.1487 128.925 23.766 128.524C23.3927 128.113 23.206 127.497 23.206 126.676V122.938H21.834V121.958H23.206V120.068L24.48 119.718V121.958H26.468V122.938H24.48V126.564C24.48 127.105 24.5733 127.493 24.76 127.726C24.956 127.95 25.236 128.062 25.6 128.062C25.7867 128.062 25.9453 128.048 26.076 128.02C26.216 127.983 26.342 127.941 26.454 127.894V128.944C26.314 129 26.1507 129.042 25.964 129.07C25.7867 129.107 25.614 129.126 25.446 129.126ZM27.7902 129V123.68C27.7902 123.4 27.7809 123.115 27.7622 122.826C27.7529 122.527 27.7296 122.238 27.6922 121.958H28.9242L29.0782 123.722L28.8682 123.736C28.9616 123.307 29.1202 122.952 29.3442 122.672C29.5776 122.383 29.8529 122.173 30.1702 122.042C30.4969 121.902 30.8329 121.832 31.1782 121.832C31.3276 121.832 31.4536 121.837 31.5562 121.846C31.6589 121.855 31.7616 121.879 31.8642 121.916L31.8362 123.05C31.6962 122.994 31.5656 122.961 31.4442 122.952C31.3322 122.933 31.1922 122.924 31.0242 122.924C30.6136 122.924 30.2589 123.017 29.9602 123.204C29.6709 123.391 29.4469 123.638 29.2882 123.946C29.1389 124.254 29.0642 124.585 29.0642 124.94V129H27.7902ZM35.8582 129.126C35.1675 129.126 34.5702 128.981 34.0662 128.692C33.5622 128.393 33.1702 127.973 32.8902 127.432C32.6102 126.881 32.4702 126.228 32.4702 125.472C32.4702 124.725 32.6102 124.081 32.8902 123.54C33.1702 122.989 33.5622 122.569 34.0662 122.28C34.5702 121.981 35.1675 121.832 35.8582 121.832C36.5488 121.832 37.1462 121.981 37.6502 122.28C38.1635 122.569 38.5555 122.989 38.8262 123.54C39.1062 124.081 39.2462 124.725 39.2462 125.472C39.2462 126.228 39.1062 126.881 38.8262 127.432C38.5555 127.973 38.1635 128.393 37.6502 128.692C37.1462 128.981 36.5488 129.126 35.8582 129.126ZM35.8582 128.118C36.4928 128.118 37.0015 127.894 37.3842 127.446C37.7668 126.998 37.9582 126.34 37.9582 125.472C37.9582 124.604 37.7668 123.951 37.3842 123.512C37.0015 123.073 36.4928 122.854 35.8582 122.854C35.2142 122.854 34.7008 123.073 34.3182 123.512C33.9448 123.951 33.7582 124.604 33.7582 125.472C33.7582 126.34 33.9448 126.998 34.3182 127.446C34.7008 127.894 35.2142 128.118 35.8582 128.118ZM40.9566 129V123.624C40.9566 123.353 40.9472 123.078 40.9286 122.798C40.9099 122.518 40.8819 122.238 40.8446 121.958H42.0766L42.2166 123.47H42.0486C42.2632 122.938 42.5946 122.532 43.0426 122.252C43.4906 121.972 44.0132 121.832 44.6106 121.832C45.4412 121.832 46.0666 122.061 46.4866 122.518C46.9066 122.966 47.1166 123.666 47.1166 124.618V129H45.8426V124.688C45.8426 124.044 45.7166 123.582 45.4646 123.302C45.2126 123.013 44.8206 122.868 44.2886 122.868C43.6539 122.868 43.1499 123.059 42.7766 123.442C42.4126 123.825 42.2306 124.343 42.2306 124.996V129H40.9566ZM52.3367 132.136C51.7207 132.136 51.1561 132.061 50.6427 131.912C50.1294 131.763 49.6674 131.534 49.2567 131.226L49.5927 130.288C49.8821 130.484 50.1667 130.643 50.4467 130.764C50.7267 130.885 51.0161 130.974 51.3147 131.03C51.6227 131.086 51.9401 131.114 52.2667 131.114C52.9574 131.114 53.4754 130.937 53.8207 130.582C54.1661 130.227 54.3387 129.723 54.3387 129.07V127.096H54.4787C54.3294 127.628 54.0214 128.053 53.5547 128.37C53.0974 128.678 52.5561 128.832 51.9307 128.832C51.2961 128.832 50.7407 128.692 50.2647 128.412C49.7981 128.123 49.4341 127.717 49.1727 127.194C48.9114 126.662 48.7807 126.041 48.7807 125.332C48.7807 124.613 48.9114 123.993 49.1727 123.47C49.4341 122.947 49.7981 122.546 50.2647 122.266C50.7407 121.977 51.2961 121.832 51.9307 121.832C52.5561 121.832 53.0974 121.986 53.5547 122.294C54.0121 122.602 54.3154 123.027 54.4647 123.568L54.3387 123.442L54.4647 121.958H55.6967C55.6687 122.238 55.6407 122.518 55.6127 122.798C55.5941 123.078 55.5847 123.353 55.5847 123.624V128.916C55.5847 129.961 55.3094 130.759 54.7587 131.31C54.2174 131.861 53.4101 132.136 52.3367 132.136ZM52.2107 127.824C52.8547 127.824 53.3681 127.605 53.7507 127.166C54.1334 126.727 54.3247 126.116 54.3247 125.332C54.3247 124.539 54.1334 123.927 53.7507 123.498C53.3681 123.069 52.8547 122.854 52.2107 122.854C51.5574 122.854 51.0347 123.069 50.6427 123.498C50.2601 123.927 50.0687 124.539 50.0687 125.332C50.0687 126.116 50.2601 126.727 50.6427 127.166C51.0347 127.605 51.5574 127.824 52.2107 127.824ZM61.5497 129V119.13H62.8517V123.442H68.5917V119.13H69.9077V129H68.5917V124.548H62.8517V129H61.5497ZM75.1238 129.126C74.4331 129.126 73.8358 128.981 73.3318 128.692C72.8278 128.393 72.4358 127.973 72.1558 127.432C71.8758 126.881 71.7358 126.228 71.7358 125.472C71.7358 124.725 71.8758 124.081 72.1558 123.54C72.4358 122.989 72.8278 122.569 73.3318 122.28C73.8358 121.981 74.4331 121.832 75.1238 121.832C75.8145 121.832 76.4118 121.981 76.9158 122.28C77.4291 122.569 77.8211 122.989 78.0918 123.54C78.3718 124.081 78.5118 124.725 78.5118 125.472C78.5118 126.228 78.3718 126.881 78.0918 127.432C77.8211 127.973 77.4291 128.393 76.9158 128.692C76.4118 128.981 75.8145 129.126 75.1238 129.126ZM75.1238 128.118C75.7585 128.118 76.2671 127.894 76.6498 127.446C77.0325 126.998 77.2238 126.34 77.2238 125.472C77.2238 124.604 77.0325 123.951 76.6498 123.512C76.2671 123.073 75.7585 122.854 75.1238 122.854C74.4798 122.854 73.9665 123.073 73.5838 123.512C73.2105 123.951 73.0238 124.604 73.0238 125.472C73.0238 126.34 73.2105 126.998 73.5838 127.446C73.9665 127.894 74.4798 128.118 75.1238 128.118ZM80.2222 129V118.696H81.4962V129H80.2222ZM86.3145 129.126C85.6985 129.126 85.1572 128.981 84.6905 128.692C84.2238 128.403 83.8598 127.983 83.5985 127.432C83.3372 126.881 83.2065 126.228 83.2065 125.472C83.2065 124.716 83.3372 124.067 83.5985 123.526C83.8598 122.975 84.2238 122.555 84.6905 122.266C85.1572 121.977 85.6985 121.832 86.3145 121.832C86.9305 121.832 87.4672 121.986 87.9245 122.294C88.3912 122.602 88.7038 123.027 88.8625 123.568H88.6945V118.696H89.9685V129H88.7085V127.362H88.8625C88.7132 127.913 88.4052 128.347 87.9385 128.664C87.4812 128.972 86.9398 129.126 86.3145 129.126ZM86.6085 128.118C87.2432 128.118 87.7518 127.894 88.1345 127.446C88.5265 126.998 88.7225 126.34 88.7225 125.472C88.7225 124.604 88.5265 123.951 88.1345 123.512C87.7518 123.073 87.2432 122.854 86.6085 122.854C85.9738 122.854 85.4605 123.073 85.0685 123.512C84.6858 123.951 84.4945 124.604 84.4945 125.472C84.4945 126.34 84.6858 126.998 85.0685 127.446C85.4605 127.894 85.9738 128.118 86.6085 128.118Z" fill="#2E4269"/>
<path d="M8 124C8 121.791 6.20914 120 4 120C1.79086 120 0 121.791 0 124C0 126.209 1.79086 128 4 128C6.20914 128 8 126.209 8 124Z" fill="#2E4269"/>
<path d="M138.906 129L135.448 119.13H136.82L139.746 127.838H139.242L142.35 119.13H143.372L146.284 127.838H145.836L148.86 119.13H150.148L146.662 129H145.528L142.686 120.67H142.98L140.026 129H138.906ZM154.036 129.126C152.916 129.126 152.029 128.804 151.376 128.16C150.732 127.516 150.41 126.629 150.41 125.5C150.41 124.753 150.55 124.109 150.83 123.568C151.119 123.017 151.516 122.593 152.02 122.294C152.524 121.986 153.112 121.832 153.784 121.832C154.428 121.832 154.974 121.972 155.422 122.252C155.87 122.523 156.21 122.91 156.444 123.414C156.677 123.918 156.794 124.515 156.794 125.206V125.626H151.404V124.87H155.926L155.688 125.052C155.688 124.324 155.524 123.759 155.198 123.358C154.88 122.957 154.409 122.756 153.784 122.756C153.102 122.756 152.575 122.994 152.202 123.47C151.828 123.937 151.642 124.576 151.642 125.388V125.514C151.642 126.373 151.852 127.021 152.272 127.46C152.701 127.899 153.294 128.118 154.05 128.118C154.47 128.118 154.862 128.057 155.226 127.936C155.59 127.815 155.94 127.614 156.276 127.334L156.696 128.216C156.378 128.505 155.982 128.729 155.506 128.888C155.039 129.047 154.549 129.126 154.036 129.126ZM161.147 129.126C160.531 129.126 159.989 128.981 159.523 128.692C159.056 128.403 158.692 127.983 158.431 127.432C158.169 126.881 158.039 126.228 158.039 125.472C158.039 124.716 158.169 124.067 158.431 123.526C158.692 122.975 159.056 122.555 159.523 122.266C159.989 121.977 160.531 121.832 161.147 121.832C161.772 121.832 162.313 121.991 162.771 122.308C163.237 122.616 163.545 123.041 163.695 123.582H163.527L163.681 121.958H164.913C164.885 122.238 164.857 122.518 164.829 122.798C164.81 123.078 164.801 123.353 164.801 123.624V129H163.527V127.39H163.681C163.531 127.922 163.223 128.347 162.757 128.664C162.299 128.972 161.763 129.126 161.147 129.126ZM161.441 128.118C162.075 128.118 162.584 127.894 162.967 127.446C163.349 126.998 163.541 126.34 163.541 125.472C163.541 124.604 163.349 123.951 162.967 123.512C162.584 123.073 162.075 122.854 161.441 122.854C160.806 122.854 160.293 123.073 159.901 123.512C159.518 123.951 159.327 124.604 159.327 125.472C159.327 126.34 159.518 126.998 159.901 127.446C160.283 127.894 160.797 128.118 161.441 128.118ZM166.935 129V118.696H168.209V125.066H168.237L171.415 121.958H172.997L169.217 125.654L169.231 125.052L173.333 129H171.709L168.237 125.724H168.209V129H166.935ZM178.095 129V119.13H179.397V123.442H185.137V119.13H186.453V129H185.137V124.548H179.397V129H178.095ZM191.669 129.126C190.978 129.126 190.381 128.981 189.877 128.692C189.373 128.393 188.981 127.973 188.701 127.432C188.421 126.881 188.281 126.228 188.281 125.472C188.281 124.725 188.421 124.081 188.701 123.54C188.981 122.989 189.373 122.569 189.877 122.28C190.381 121.981 190.978 121.832 191.669 121.832C192.359 121.832 192.957 121.981 193.461 122.28C193.974 122.569 194.366 122.989 194.637 123.54C194.917 124.081 195.057 124.725 195.057 125.472C195.057 126.228 194.917 126.881 194.637 127.432C194.366 127.973 193.974 128.393 193.461 128.692C192.957 128.981 192.359 129.126 191.669 129.126ZM191.669 128.118C192.303 128.118 192.812 127.894 193.195 127.446C193.577 126.998 193.769 126.34 193.769 125.472C193.769 124.604 193.577 123.951 193.195 123.512C192.812 123.073 192.303 122.854 191.669 122.854C191.025 122.854 190.511 123.073 190.129 123.512C189.755 123.951 189.569 124.604 189.569 125.472C189.569 126.34 189.755 126.998 190.129 127.446C190.511 127.894 191.025 128.118 191.669 128.118ZM196.767 129V118.696H198.041V129H196.767ZM202.859 129.126C202.243 129.126 201.702 128.981 201.235 128.692C200.769 128.403 200.405 127.983 200.143 127.432C199.882 126.881 199.751 126.228 199.751 125.472C199.751 124.716 199.882 124.067 200.143 123.526C200.405 122.975 200.769 122.555 201.235 122.266C201.702 121.977 202.243 121.832 202.859 121.832C203.475 121.832 204.012 121.986 204.469 122.294C204.936 122.602 205.249 123.027 205.407 123.568H205.239V118.696H206.513V129H205.253V127.362H205.407C205.258 127.913 204.95 128.347 204.483 128.664C204.026 128.972 203.485 129.126 202.859 129.126ZM203.153 128.118C203.788 128.118 204.297 127.894 204.679 127.446C205.071 126.998 205.267 126.34 205.267 125.472C205.267 124.604 205.071 123.951 204.679 123.512C204.297 123.073 203.788 122.854 203.153 122.854C202.519 122.854 202.005 123.073 201.613 123.512C201.231 123.951 201.039 124.604 201.039 125.472C201.039 126.34 201.231 126.998 201.613 127.446C202.005 127.894 202.519 128.118 203.153 128.118Z" fill="#2E4269"/>
<path d="M130 124C130 121.791 128.209 120 126 120C123.791 120 122 121.791 122 124C122 126.209 123.791 128 126 128C128.209 128 130 126.209 130 124Z" fill="#FA6E57"/>
<path d="M147.128 75.6025C142.658 83.14 136.288 89.3723 128.655 93.6763C121.021 97.9803 112.392 100.205 103.629 100.129C94.8658 100.052 86.2764 97.6772 78.7191 93.2407C71.1619 88.8042 64.9015 82.4618 60.5637 74.8474C56.226 67.233 53.9628 58.6135 54.0005 49.8503C54.0381 41.0871 56.3752 32.4873 60.7783 24.9105C65.1813 17.3337 71.496 11.0453 79.091 6.67385C86.6861 2.30243 95.2956 0.00113985 104.059 0V48.388L147.128 75.6025Z" fill="#FA6E57"/>
<path d="M154.154 50.0654C154.167 59.0529 151.75 67.8768 147.158 75.6025L104.089 48.388V0C117.367 0 130.101 5.27473 139.49 14.6638C148.879 24.0529 154.154 36.7872 154.154 50.0654Z" fill="#2E4269"/>
</svg>
