<svg width="848" height="400" viewBox="0 0 848 400" fill="none" xmlns="http://www.w3.org/2000/svg">
<path d="M30 94.6333C54.1943 91.9957 106.124 90.2812 120.286 104.524C137.989 122.328 164.544 126.944 189.328 94.6333C214.113 62.3223 309.71 76.8293 324.757 111.778C339.805 146.726 378.752 163.211 411.503 137.495C444.254 111.778 452.22 153.98 492.052 111.778C531.884 69.5758 598.271 78.8076 618.629 104.524C638.988 130.241 666.428 126.285 681.476 123.647C696.523 121.009 708.03 149.364 742.551 149.364C777.073 149.364 772.647 104.524 804.512 104.524C830.005 104.524 843.459 104.524 847 104.524" stroke="#2E4269" stroke-width="1.8375"/>
<path d="M120.286 108.318C106.124 92.8387 54.1943 94.7019 30 97.5683V298H847V108.318H804.512C772.647 108.318 777.073 157.047 742.551 157.047C708.03 157.047 696.523 126.233 681.476 129.099C666.428 131.966 638.988 136.265 618.629 108.318C598.271 80.3697 531.884 70.337 492.052 116.2C452.22 162.063 444.254 116.2 411.503 144.148C378.752 172.096 339.805 154.181 324.757 116.2C309.71 78.2197 214.113 62.4543 189.328 97.5683C164.544 132.682 137.989 127.666 120.286 108.318Z" fill="url(#paint0_linear_1404_1625)"/>
<path d="M34.5 290.5C58.6943 287.862 91.8375 149.257 106 163.5C123.703 181.304 166.716 138.311 191.5 106C216.284 73.6891 309.71 131.774 324.757 166.722C339.805 201.671 354.249 159.215 387 133.498C419.751 107.781 452.22 208.924 492.052 166.722C531.884 124.521 598.271 133.752 618.629 159.469C638.988 185.186 694.452 121.108 709.5 118.471C724.548 115.833 708.03 204.309 742.551 204.309C777.073 204.309 772.647 159.469 804.512 159.469C830.005 159.469 843.459 159.469 847 159.469" stroke="#FA6E57" stroke-width="1.8375"/>
<path d="M34.5 290.5C58.6943 287.862 120.837 206.757 135 221C152.703 238.804 190.216 222.811 215 190.5C239.784 158.189 308.952 47.3022 324 82.2507C339.048 117.199 378.752 233.569 411.503 207.852C444.254 182.135 452.22 232.702 492.052 190.5C531.884 148.298 568.141 83.0086 588.5 108.725C608.859 134.442 666.428 196.642 681.476 194.005C696.523 191.367 708.03 219.721 742.551 219.721C777.073 219.721 763.634 150.838 795.5 150.838C820.993 150.838 843.459 174.882 847 174.882" stroke="#F69E53" stroke-width="1.8375"/>
<line opacity="0.8" x1="519.5" y1="281" x2="519.5" y2="91" stroke="url(#paint1_linear_1404_1625)"/>
<circle cx="519.5" cy="91.5" r="3.5" fill="#2E4269"/>
<circle cx="519.5" cy="158.5" r="3.5" fill="#F69E53"/>
<circle cx="519.5" cy="146.5" r="3.5" fill="#FA6E57"/>
<path d="M1.818 16V13.696H4.698V5.65H6.012L2.124 7.918V5.29L5.508 3.31H7.506V13.696H10.206V16H1.818ZM12.107 16V13.93L16.139 9.736C16.643 9.208 17.009 8.74 17.237 8.332C17.465 7.924 17.579 7.504 17.579 7.072C17.579 6.532 17.405 6.124 17.057 5.848C16.709 5.572 16.211 5.434 15.563 5.434C15.023 5.434 14.489 5.536 13.961 5.74C13.445 5.932 12.935 6.232 12.431 6.64L11.549 4.588C12.077 4.132 12.731 3.772 13.511 3.508C14.291 3.244 15.101 3.112 15.941 3.112C17.357 3.112 18.443 3.43 19.199 4.066C19.955 4.69 20.333 5.584 20.333 6.748C20.333 7.528 20.153 8.272 19.793 8.98C19.433 9.688 18.851 10.438 18.047 11.23L14.807 14.416V13.696H20.819V16H12.107Z" fill="#2E4269"/>
<path d="M1.818 63V60.696H4.698V52.65H6.012L2.124 54.918V52.29L5.508 50.31H7.506V60.696H10.206V63H1.818ZM16.193 63.198C14.669 63.198 13.493 62.628 12.665 61.488C11.849 60.336 11.441 58.716 11.441 56.628C11.441 54.504 11.849 52.89 12.665 51.786C13.493 50.67 14.669 50.112 16.193 50.112C17.729 50.112 18.905 50.67 19.721 51.786C20.537 52.89 20.945 54.498 20.945 56.61C20.945 58.71 20.537 60.336 19.721 61.488C18.905 62.628 17.729 63.198 16.193 63.198ZM16.193 60.93C16.889 60.93 17.405 60.588 17.741 59.904C18.089 59.208 18.263 58.11 18.263 56.61C18.263 55.11 18.089 54.03 17.741 53.37C17.405 52.71 16.889 52.38 16.193 52.38C15.497 52.38 14.975 52.71 14.627 53.37C14.291 54.03 14.123 55.104 14.123 56.592C14.123 58.104 14.297 59.208 14.645 59.904C14.993 60.588 15.509 60.93 16.193 60.93Z" fill="#2E4269"/>
<path d="M5.4 110.198C3.888 110.198 2.7 109.874 1.836 109.226C0.984 108.578 0.558 107.684 0.558 106.544C0.558 105.644 0.828 104.9 1.368 104.312C1.908 103.724 2.604 103.376 3.456 103.268V103.736C2.688 103.568 2.064 103.202 1.584 102.638C1.116 102.062 0.882 101.372 0.882 100.568C0.882 99.488 1.284 98.642 2.088 98.03C2.904 97.418 4.008 97.112 5.4 97.112C6.804 97.112 7.908 97.418 8.712 98.03C9.516 98.642 9.918 99.488 9.918 100.568C9.918 101.384 9.69 102.08 9.234 102.656C8.79 103.232 8.196 103.58 7.452 103.7V103.268C8.28 103.388 8.952 103.742 9.468 104.33C9.996 104.918 10.26 105.656 10.26 106.544C10.26 107.684 9.828 108.578 8.964 109.226C8.112 109.874 6.924 110.198 5.4 110.198ZM5.4 108.056C6.168 108.056 6.738 107.912 7.11 107.624C7.494 107.336 7.686 106.91 7.686 106.346C7.686 105.782 7.494 105.362 7.11 105.086C6.738 104.798 6.168 104.654 5.4 104.654C4.644 104.654 4.074 104.798 3.69 105.086C3.306 105.362 3.114 105.782 3.114 106.346C3.114 106.91 3.306 107.336 3.69 107.624C4.074 107.912 4.644 108.056 5.4 108.056ZM5.4 102.512C6.036 102.512 6.522 102.368 6.858 102.08C7.194 101.78 7.362 101.378 7.362 100.874C7.362 100.37 7.194 99.974 6.858 99.686C6.522 99.398 6.036 99.254 5.4 99.254C4.776 99.254 4.296 99.398 3.96 99.686C3.624 99.974 3.456 100.37 3.456 100.874C3.456 101.378 3.624 101.78 3.96 102.08C4.296 102.368 4.776 102.512 5.4 102.512Z" fill="#2E4269"/>
<path d="M5.868 157.198C4.236 157.198 2.976 156.64 2.088 155.524C1.2 154.408 0.756 152.842 0.756 150.826C0.756 149.41 0.984 148.204 1.44 147.208C1.896 146.2 2.544 145.432 3.384 144.904C4.236 144.376 5.256 144.112 6.444 144.112C7.128 144.112 7.806 144.232 8.478 144.472C9.162 144.7 9.756 145.036 10.26 145.48L9.36 147.55C8.916 147.178 8.442 146.902 7.938 146.722C7.434 146.53 6.924 146.434 6.408 146.434C5.424 146.434 4.674 146.758 4.158 147.406C3.642 148.054 3.384 149.02 3.384 150.304V151.474H3.15C3.246 150.898 3.444 150.412 3.744 150.016C4.044 149.608 4.428 149.296 4.896 149.08C5.364 148.864 5.88 148.756 6.444 148.756C7.164 148.756 7.806 148.936 8.37 149.296C8.946 149.644 9.396 150.13 9.72 150.754C10.044 151.366 10.206 152.068 10.206 152.86C10.206 153.7 10.02 154.45 9.648 155.11C9.276 155.758 8.766 156.268 8.118 156.64C7.482 157.012 6.732 157.198 5.868 157.198ZM5.724 155.02C6.108 155.02 6.444 154.936 6.732 154.768C7.02 154.6 7.242 154.36 7.398 154.048C7.554 153.736 7.632 153.376 7.632 152.968C7.632 152.56 7.554 152.206 7.398 151.906C7.242 151.594 7.02 151.354 6.732 151.186C6.444 151.006 6.108 150.916 5.724 150.916C5.34 150.916 5.004 151.006 4.716 151.186C4.428 151.354 4.2 151.594 4.032 151.906C3.876 152.206 3.798 152.56 3.798 152.968C3.798 153.376 3.876 153.736 4.032 154.048C4.2 154.36 4.428 154.6 4.716 154.768C5.004 154.936 5.34 155.02 5.724 155.02Z" fill="#2E4269"/>
<path d="M6.084 204V201.678H0.648V199.734L6.516 191.31H8.784V199.572H10.512V201.678H8.784V204H6.084ZM6.084 199.572V194.622H6.534L2.664 200.22V199.572H6.084Z" fill="#2E4269"/>
<path d="M1.314 251V248.93L5.346 244.736C5.85 244.208 6.216 243.74 6.444 243.332C6.672 242.924 6.786 242.504 6.786 242.072C6.786 241.532 6.612 241.124 6.264 240.848C5.916 240.572 5.418 240.434 4.77 240.434C4.23 240.434 3.696 240.536 3.168 240.74C2.652 240.932 2.142 241.232 1.638 241.64L0.756 239.588C1.284 239.132 1.938 238.772 2.718 238.508C3.498 238.244 4.308 238.112 5.148 238.112C6.564 238.112 7.65 238.43 8.406 239.066C9.162 239.69 9.54 240.584 9.54 241.748C9.54 242.528 9.36 243.272 9 243.98C8.64 244.688 8.058 245.438 7.254 246.23L4.014 249.416V248.696H10.026V251H1.314Z" fill="#2E4269"/>
<path d="M5.4 298.198C3.876 298.198 2.7 297.628 1.872 296.488C1.056 295.336 0.648 293.716 0.648 291.628C0.648 289.504 1.056 287.89 1.872 286.786C2.7 285.67 3.876 285.112 5.4 285.112C6.936 285.112 8.112 285.67 8.928 286.786C9.744 287.89 10.152 289.498 10.152 291.61C10.152 293.71 9.744 295.336 8.928 296.488C8.112 297.628 6.936 298.198 5.4 298.198ZM5.4 295.93C6.096 295.93 6.612 295.588 6.948 294.904C7.296 294.208 7.47 293.11 7.47 291.61C7.47 290.11 7.296 289.03 6.948 288.37C6.612 287.71 6.096 287.38 5.4 287.38C4.704 287.38 4.182 287.71 3.834 288.37C3.498 289.03 3.33 290.104 3.33 291.592C3.33 293.104 3.504 294.208 3.852 294.904C4.2 295.588 4.716 295.93 5.4 295.93Z" fill="#2E4269"/>
<path d="M92.56 395V380.9H98.72C100.267 380.9 101.46 381.267 102.3 382C103.153 382.733 103.58 383.753 103.58 385.06C103.58 385.927 103.387 386.667 103 387.28C102.627 387.893 102.087 388.367 101.38 388.7C100.673 389.02 99.84 389.18 98.88 389.18L99.16 388.8H99.84C100.4 388.8 100.9 388.947 101.34 389.24C101.78 389.533 102.14 389.98 102.42 390.58L104.48 395H101.64L99.56 390.42C99.3733 389.953 99.0867 389.647 98.7 389.5C98.3267 389.353 97.8733 389.28 97.34 389.28H95.14V395H92.56ZM95.14 387.38H98.3C99.2067 387.38 99.8933 387.193 100.36 386.82C100.84 386.433 101.08 385.873 101.08 385.14C101.08 384.407 100.84 383.853 100.36 383.48C99.8933 383.107 99.2067 382.92 98.3 382.92H95.14V387.38ZM111.029 395.2C109.336 395.2 108.009 394.733 107.049 393.8C106.089 392.867 105.609 391.587 105.609 389.96C105.609 388.907 105.816 387.987 106.229 387.2C106.642 386.413 107.216 385.8 107.949 385.36C108.696 384.92 109.562 384.7 110.549 384.7C111.522 384.7 112.336 384.907 112.989 385.32C113.642 385.733 114.136 386.313 114.469 387.06C114.816 387.807 114.989 388.68 114.989 389.68V390.34H107.629V389.02H113.209L112.869 389.3C112.869 388.367 112.669 387.653 112.269 387.16C111.882 386.667 111.316 386.42 110.569 386.42C109.742 386.42 109.102 386.713 108.649 387.3C108.209 387.887 107.989 388.707 107.989 389.76V390.02C107.989 391.113 108.256 391.933 108.789 392.48C109.336 393.013 110.102 393.28 111.089 393.28C111.662 393.28 112.196 393.207 112.689 393.06C113.196 392.9 113.676 392.647 114.129 392.3L114.869 393.98C114.389 394.367 113.816 394.667 113.149 394.88C112.482 395.093 111.776 395.2 111.029 395.2ZM121.786 399.48C120.853 399.48 120.006 399.38 119.246 399.18C118.499 398.98 117.833 398.673 117.246 398.26L117.786 396.46C118.173 396.713 118.573 396.92 118.986 397.08C119.399 397.24 119.826 397.36 120.266 397.44C120.706 397.52 121.153 397.56 121.606 397.56C122.539 397.56 123.233 397.327 123.686 396.86C124.153 396.407 124.386 395.753 124.386 394.9V392.48H124.586C124.373 393.173 123.939 393.727 123.286 394.14C122.646 394.553 121.906 394.76 121.066 394.76C120.159 394.76 119.366 394.56 118.686 394.16C118.019 393.747 117.499 393.16 117.126 392.4C116.753 391.64 116.566 390.747 116.566 389.72C116.566 388.693 116.753 387.807 117.126 387.06C117.499 386.3 118.019 385.72 118.686 385.32C119.366 384.907 120.159 384.7 121.066 384.7C121.919 384.7 122.659 384.907 123.286 385.32C123.926 385.72 124.353 386.267 124.566 386.96L124.386 386.84L124.586 384.9H127.006C126.953 385.313 126.913 385.733 126.886 386.16C126.859 386.587 126.846 387.007 126.846 387.42V394.6C126.846 396.187 126.413 397.393 125.546 398.22C124.693 399.06 123.439 399.48 121.786 399.48ZM121.746 392.84C122.546 392.84 123.179 392.573 123.646 392.04C124.126 391.493 124.366 390.72 124.366 389.72C124.366 388.72 124.126 387.953 123.646 387.42C123.179 386.887 122.546 386.62 121.746 386.62C120.933 386.62 120.286 386.887 119.806 387.42C119.326 387.953 119.086 388.72 119.086 389.72C119.086 390.72 119.326 391.493 119.806 392.04C120.286 392.573 120.933 392.84 121.746 392.84ZM129.548 395V384.9H132.048V395H129.548ZM129.408 383V380.56H132.188V383H129.408ZM138.362 395.2C137.496 395.2 136.696 395.1 135.962 394.9C135.242 394.687 134.636 394.393 134.142 394.02L134.842 392.34C135.349 392.687 135.909 392.953 136.522 393.14C137.136 393.327 137.756 393.42 138.382 393.42C139.049 393.42 139.542 393.307 139.862 393.08C140.196 392.853 140.362 392.547 140.362 392.16C140.362 391.853 140.256 391.613 140.042 391.44C139.842 391.253 139.516 391.113 139.062 391.02L137.062 390.64C136.209 390.453 135.556 390.133 135.102 389.68C134.662 389.227 134.442 388.633 134.442 387.9C134.442 387.273 134.609 386.72 134.942 386.24C135.289 385.76 135.776 385.387 136.402 385.12C137.042 384.84 137.789 384.7 138.642 384.7C139.389 384.7 140.089 384.8 140.742 385C141.409 385.2 141.969 385.5 142.422 385.9L141.702 387.52C141.289 387.187 140.816 386.927 140.282 386.74C139.749 386.553 139.229 386.46 138.722 386.46C138.029 386.46 137.522 386.587 137.202 386.84C136.882 387.08 136.722 387.393 136.722 387.78C136.722 388.073 136.816 388.32 137.002 388.52C137.202 388.707 137.509 388.847 137.922 388.94L139.922 389.32C140.816 389.493 141.489 389.8 141.942 390.24C142.409 390.667 142.642 391.253 142.642 392C142.642 392.667 142.462 393.24 142.102 393.72C141.742 394.2 141.242 394.567 140.602 394.82C139.962 395.073 139.216 395.2 138.362 395.2ZM149.004 395.2C147.804 395.2 146.898 394.887 146.284 394.26C145.671 393.633 145.364 392.693 145.364 391.44V386.78H143.424V384.9H145.364V382.32L147.864 381.68V384.9H150.564V386.78H147.864V391.28C147.864 391.973 147.998 392.46 148.264 392.74C148.531 393.02 148.898 393.16 149.364 393.16C149.618 393.16 149.831 393.14 150.004 393.1C150.191 393.06 150.371 393.007 150.544 392.94V394.92C150.318 395.013 150.064 395.08 149.784 395.12C149.518 395.173 149.258 395.2 149.004 395.2ZM157.045 395.2C155.351 395.2 154.025 394.733 153.065 393.8C152.105 392.867 151.625 391.587 151.625 389.96C151.625 388.907 151.831 387.987 152.245 387.2C152.658 386.413 153.231 385.8 153.965 385.36C154.711 384.92 155.578 384.7 156.565 384.7C157.538 384.7 158.351 384.907 159.005 385.32C159.658 385.733 160.151 386.313 160.485 387.06C160.831 387.807 161.005 388.68 161.005 389.68V390.34H153.645V389.02H159.225L158.885 389.3C158.885 388.367 158.685 387.653 158.285 387.16C157.898 386.667 157.331 386.42 156.585 386.42C155.758 386.42 155.118 386.713 154.665 387.3C154.225 387.887 154.005 388.707 154.005 389.76V390.02C154.005 391.113 154.271 391.933 154.805 392.48C155.351 393.013 156.118 393.28 157.105 393.28C157.678 393.28 158.211 393.207 158.705 393.06C159.211 392.9 159.691 392.647 160.145 392.3L160.885 393.98C160.405 394.367 159.831 394.667 159.165 394.88C158.498 395.093 157.791 395.2 157.045 395.2ZM163.102 395V387.48C163.102 387.053 163.088 386.62 163.062 386.18C163.048 385.74 163.015 385.313 162.962 384.9H165.382L165.662 387.66H165.262C165.395 386.993 165.615 386.44 165.922 386C166.242 385.56 166.628 385.233 167.082 385.02C167.535 384.807 168.028 384.7 168.562 384.7C168.802 384.7 168.995 384.713 169.142 384.74C169.288 384.753 169.435 384.787 169.582 384.84L169.562 387.04C169.308 386.933 169.088 386.867 168.902 386.84C168.728 386.813 168.508 386.8 168.242 386.8C167.668 386.8 167.182 386.92 166.782 387.16C166.395 387.4 166.102 387.733 165.902 388.16C165.715 388.587 165.622 389.073 165.622 389.62V395H163.102ZM175.697 395.2C174.004 395.2 172.677 394.733 171.717 393.8C170.757 392.867 170.277 391.587 170.277 389.96C170.277 388.907 170.484 387.987 170.897 387.2C171.31 386.413 171.884 385.8 172.617 385.36C173.364 384.92 174.23 384.7 175.217 384.7C176.19 384.7 177.004 384.907 177.657 385.32C178.31 385.733 178.804 386.313 179.137 387.06C179.484 387.807 179.657 388.68 179.657 389.68V390.34H172.297V389.02H177.877L177.537 389.3C177.537 388.367 177.337 387.653 176.937 387.16C176.55 386.667 175.984 386.42 175.237 386.42C174.41 386.42 173.77 386.713 173.317 387.3C172.877 387.887 172.657 388.707 172.657 389.76V390.02C172.657 391.113 172.924 391.933 173.457 392.48C174.004 393.013 174.77 393.28 175.757 393.28C176.33 393.28 176.864 393.207 177.357 393.06C177.864 392.9 178.344 392.647 178.797 392.3L179.537 393.98C179.057 394.367 178.484 394.667 177.817 394.88C177.15 395.093 176.444 395.2 175.697 395.2ZM185.694 395.2C184.814 395.2 184.034 394.993 183.354 394.58C182.687 394.153 182.167 393.547 181.794 392.76C181.421 391.973 181.234 391.033 181.234 389.94C181.234 388.847 181.421 387.913 181.794 387.14C182.167 386.353 182.687 385.753 183.354 385.34C184.034 384.913 184.814 384.7 185.694 384.7C186.534 384.7 187.274 384.907 187.914 385.32C188.567 385.72 189.001 386.267 189.214 386.96H188.954V380.28H191.454V395H188.994V392.86H189.234C189.021 393.58 188.587 394.153 187.934 394.58C187.294 394.993 186.547 395.2 185.694 395.2ZM186.394 393.28C187.181 393.28 187.814 393.007 188.294 392.46C188.774 391.9 189.014 391.06 189.014 389.94C189.014 388.82 188.774 387.987 188.294 387.44C187.814 386.893 187.181 386.62 186.394 386.62C185.607 386.62 184.967 386.893 184.474 387.44C183.994 387.987 183.754 388.82 183.754 389.94C183.754 391.06 183.994 391.9 184.474 392.46C184.967 393.007 185.607 393.28 186.394 393.28ZM204.425 395L198.145 380.9H200.925L205.985 392.74H205.145L210.205 380.9H212.885L206.605 395H204.425ZM217.389 395.2C216.349 395.2 215.449 394.987 214.689 394.56C213.929 394.133 213.335 393.527 212.909 392.74C212.495 391.953 212.289 391.02 212.289 389.94C212.289 388.86 212.495 387.933 212.909 387.16C213.335 386.373 213.929 385.767 214.689 385.34C215.449 384.913 216.349 384.7 217.389 384.7C218.429 384.7 219.329 384.913 220.089 385.34C220.862 385.767 221.455 386.373 221.869 387.16C222.295 387.933 222.509 388.86 222.509 389.94C222.509 391.02 222.295 391.953 221.869 392.74C221.455 393.527 220.862 394.133 220.089 394.56C219.329 394.987 218.429 395.2 217.389 395.2ZM217.389 393.28C218.175 393.28 218.802 393.007 219.269 392.46C219.735 391.9 219.969 391.06 219.969 389.94C219.969 388.82 219.735 387.987 219.269 387.44C218.802 386.893 218.175 386.62 217.389 386.62C216.602 386.62 215.975 386.893 215.509 387.44C215.042 387.987 214.809 388.82 214.809 389.94C214.809 391.06 215.042 391.9 215.509 392.46C215.975 393.007 216.602 393.28 217.389 393.28ZM228.887 395.2C227.687 395.2 226.78 394.887 226.167 394.26C225.554 393.633 225.247 392.693 225.247 391.44V386.78H223.307V384.9H225.247V382.32L227.747 381.68V384.9H230.447V386.78H227.747V391.28C227.747 391.973 227.88 392.46 228.147 392.74C228.414 393.02 228.78 393.16 229.247 393.16C229.5 393.16 229.714 393.14 229.887 393.1C230.074 393.06 230.254 393.007 230.427 392.94V394.92C230.2 395.013 229.947 395.08 229.667 395.12C229.4 395.173 229.14 395.2 228.887 395.2ZM236.928 395.2C235.234 395.2 233.908 394.733 232.948 393.8C231.988 392.867 231.508 391.587 231.508 389.96C231.508 388.907 231.714 387.987 232.128 387.2C232.541 386.413 233.114 385.8 233.848 385.36C234.594 384.92 235.461 384.7 236.448 384.7C237.421 384.7 238.234 384.907 238.888 385.32C239.541 385.733 240.034 386.313 240.368 387.06C240.714 387.807 240.888 388.68 240.888 389.68V390.34H233.528V389.02H239.108L238.768 389.3C238.768 388.367 238.568 387.653 238.168 387.16C237.781 386.667 237.214 386.42 236.468 386.42C235.641 386.42 235.001 386.713 234.548 387.3C234.108 387.887 233.888 388.707 233.888 389.76V390.02C233.888 391.113 234.154 391.933 234.688 392.48C235.234 393.013 236.001 393.28 236.988 393.28C237.561 393.28 238.094 393.207 238.588 393.06C239.094 392.9 239.574 392.647 240.028 392.3L240.768 393.98C240.288 394.367 239.714 394.667 239.048 394.88C238.381 395.093 237.674 395.2 236.928 395.2ZM242.985 395V387.48C242.985 387.053 242.971 386.62 242.945 386.18C242.931 385.74 242.898 385.313 242.845 384.9H245.265L245.545 387.66H245.145C245.278 386.993 245.498 386.44 245.805 386C246.125 385.56 246.511 385.233 246.965 385.02C247.418 384.807 247.911 384.7 248.445 384.7C248.685 384.7 248.878 384.713 249.025 384.74C249.171 384.753 249.318 384.787 249.465 384.84L249.445 387.04C249.191 386.933 248.971 386.867 248.785 386.84C248.611 386.813 248.391 386.8 248.125 386.8C247.551 386.8 247.065 386.92 246.665 387.16C246.278 387.4 245.985 387.733 245.785 388.16C245.598 388.587 245.505 389.073 245.505 389.62V395H242.985ZM254.358 395.2C253.492 395.2 252.692 395.1 251.958 394.9C251.238 394.687 250.632 394.393 250.138 394.02L250.838 392.34C251.345 392.687 251.905 392.953 252.518 393.14C253.132 393.327 253.752 393.42 254.378 393.42C255.045 393.42 255.538 393.307 255.858 393.08C256.192 392.853 256.358 392.547 256.358 392.16C256.358 391.853 256.252 391.613 256.038 391.44C255.838 391.253 255.512 391.113 255.058 391.02L253.058 390.64C252.205 390.453 251.552 390.133 251.098 389.68C250.658 389.227 250.438 388.633 250.438 387.9C250.438 387.273 250.605 386.72 250.938 386.24C251.285 385.76 251.772 385.387 252.398 385.12C253.038 384.84 253.785 384.7 254.638 384.7C255.385 384.7 256.085 384.8 256.738 385C257.405 385.2 257.965 385.5 258.418 385.9L257.698 387.52C257.285 387.187 256.812 386.927 256.278 386.74C255.745 386.553 255.225 386.46 254.718 386.46C254.025 386.46 253.518 386.587 253.198 386.84C252.878 387.08 252.718 387.393 252.718 387.78C252.718 388.073 252.812 388.32 252.998 388.52C253.198 388.707 253.505 388.847 253.918 388.94L255.918 389.32C256.812 389.493 257.485 389.8 257.938 390.24C258.405 390.667 258.638 391.253 258.638 392C258.638 392.667 258.458 393.24 258.098 393.72C257.738 394.2 257.238 394.567 256.598 394.82C255.958 395.073 255.212 395.2 254.358 395.2Z" fill="#2E4269"/>
<rect x="55" y="379" width="16" height="16" rx="8" fill="#2E4269"/>
<path d="M427.88 395V383.02H423.22V380.9H435.12V383.02H430.46V395H427.88ZM438.879 395.2C437.639 395.2 436.712 394.86 436.099 394.18C435.486 393.5 435.179 392.46 435.179 391.06V384.9H437.679V391.04C437.679 391.787 437.832 392.34 438.139 392.7C438.446 393.047 438.912 393.22 439.539 393.22C440.246 393.22 440.819 392.98 441.259 392.5C441.712 392.02 441.939 391.387 441.939 390.6V384.9H444.439V395H441.999V392.94H442.279C441.986 393.66 441.539 394.22 440.939 394.62C440.352 395.007 439.666 395.2 438.879 395.2ZM447.133 395V387.48C447.133 387.053 447.12 386.62 447.093 386.18C447.08 385.74 447.046 385.313 446.993 384.9H449.413L449.693 387.66H449.293C449.426 386.993 449.646 386.44 449.953 386C450.273 385.56 450.66 385.233 451.113 385.02C451.566 384.807 452.06 384.7 452.593 384.7C452.833 384.7 453.026 384.713 453.173 384.74C453.32 384.753 453.466 384.787 453.613 384.84L453.593 387.04C453.34 386.933 453.12 386.867 452.933 386.84C452.76 386.813 452.54 386.8 452.273 386.8C451.7 386.8 451.213 386.92 450.813 387.16C450.426 387.4 450.133 387.733 449.933 388.16C449.746 388.587 449.653 389.073 449.653 389.62V395H447.133ZM455.005 395V387.42C455.005 387.007 454.991 386.587 454.965 386.16C454.938 385.733 454.898 385.313 454.845 384.9H457.265L457.465 386.9H457.225C457.545 386.193 458.018 385.653 458.645 385.28C459.271 384.893 459.998 384.7 460.825 384.7C462.011 384.7 462.905 385.033 463.505 385.7C464.105 386.367 464.405 387.407 464.405 388.82V395H461.905V388.94C461.905 388.127 461.745 387.547 461.425 387.2C461.118 386.84 460.651 386.66 460.025 386.66C459.251 386.66 458.638 386.9 458.185 387.38C457.731 387.86 457.505 388.5 457.505 389.3V395H455.005ZM471.615 395.2C470.575 395.2 469.675 394.987 468.915 394.56C468.155 394.133 467.562 393.527 467.135 392.74C466.722 391.953 466.515 391.02 466.515 389.94C466.515 388.86 466.722 387.933 467.135 387.16C467.562 386.373 468.155 385.767 468.915 385.34C469.675 384.913 470.575 384.7 471.615 384.7C472.655 384.7 473.555 384.913 474.315 385.34C475.089 385.767 475.682 386.373 476.095 387.16C476.522 387.933 476.735 388.86 476.735 389.94C476.735 391.02 476.522 391.953 476.095 392.74C475.682 393.527 475.089 394.133 474.315 394.56C473.555 394.987 472.655 395.2 471.615 395.2ZM471.615 393.28C472.402 393.28 473.029 393.007 473.495 392.46C473.962 391.9 474.195 391.06 474.195 389.94C474.195 388.82 473.962 387.987 473.495 387.44C473.029 386.893 472.402 386.62 471.615 386.62C470.829 386.62 470.202 386.893 469.735 387.44C469.269 387.987 469.035 388.82 469.035 389.94C469.035 391.06 469.269 391.9 469.735 392.46C470.202 393.007 470.829 393.28 471.615 393.28ZM482.531 395.2C481.291 395.2 480.365 394.86 479.751 394.18C479.138 393.5 478.831 392.46 478.831 391.06V384.9H481.331V391.04C481.331 391.787 481.485 392.34 481.791 392.7C482.098 393.047 482.565 393.22 483.191 393.22C483.898 393.22 484.471 392.98 484.911 392.5C485.365 392.02 485.591 391.387 485.591 390.6V384.9H488.091V395H485.651V392.94H485.931C485.638 393.66 485.191 394.22 484.591 394.62C484.005 395.007 483.318 395.2 482.531 395.2ZM495.125 395.2C493.925 395.2 493.019 394.887 492.405 394.26C491.792 393.633 491.485 392.693 491.485 391.44V386.78H489.545V384.9H491.485V382.32L493.985 381.68V384.9H496.685V386.78H493.985V391.28C493.985 391.973 494.119 392.46 494.385 392.74C494.652 393.02 495.019 393.16 495.485 393.16C495.739 393.16 495.952 393.14 496.125 393.1C496.312 393.06 496.492 393.007 496.665 392.94V394.92C496.439 395.013 496.185 395.08 495.905 395.12C495.639 395.173 495.379 395.2 495.125 395.2Z" fill="#2E4269"/>
<rect x="387" y="379" width="16" height="16" rx="8" fill="#FA6E57"/>
<path d="M667.12 395L660.84 380.9H663.62L668.68 392.74H667.84L672.9 380.9H675.58L669.3 395H667.12ZM679.483 395.2C678.603 395.2 677.829 394.993 677.163 394.58C676.496 394.153 675.976 393.547 675.603 392.76C675.229 391.973 675.043 391.033 675.043 389.94C675.043 388.847 675.229 387.913 675.603 387.14C675.976 386.353 676.496 385.753 677.163 385.34C677.829 384.913 678.603 384.7 679.483 384.7C680.336 384.7 681.083 384.913 681.723 385.34C682.376 385.753 682.809 386.313 683.023 387.02H682.803L683.023 384.9H685.423C685.383 385.313 685.343 385.733 685.303 386.16C685.276 386.587 685.263 387.007 685.263 387.42V395H682.783L682.763 392.92H683.003C682.789 393.613 682.356 394.167 681.703 394.58C681.049 394.993 680.309 395.2 679.483 395.2ZM680.183 393.28C680.969 393.28 681.603 393.007 682.083 392.46C682.563 391.9 682.803 391.06 682.803 389.94C682.803 388.82 682.563 387.987 682.083 387.44C681.603 386.893 680.969 386.62 680.183 386.62C679.396 386.62 678.763 386.893 678.283 387.44C677.803 387.987 677.563 388.82 677.563 389.94C677.563 391.06 677.796 391.9 678.263 392.46C678.743 393.007 679.383 393.28 680.183 393.28ZM687.985 395V380.28H690.485V395H687.985ZM693.2 395V384.9H695.7V395H693.2ZM693.06 383V380.56H695.84V383H693.06ZM702.335 395.2C701.455 395.2 700.675 394.993 699.995 394.58C699.328 394.153 698.808 393.547 698.435 392.76C698.061 391.973 697.875 391.033 697.875 389.94C697.875 388.847 698.061 387.913 698.435 387.14C698.808 386.353 699.328 385.753 699.995 385.34C700.675 384.913 701.455 384.7 702.335 384.7C703.175 384.7 703.915 384.907 704.555 385.32C705.208 385.72 705.641 386.267 705.855 386.96H705.595V380.28H708.095V395H705.635V392.86H705.875C705.661 393.58 705.228 394.153 704.575 394.58C703.935 394.993 703.188 395.2 702.335 395.2ZM703.035 393.28C703.821 393.28 704.455 393.007 704.935 392.46C705.415 391.9 705.655 391.06 705.655 389.94C705.655 388.82 705.415 387.987 704.935 387.44C704.455 386.893 703.821 386.62 703.035 386.62C702.248 386.62 701.608 386.893 701.115 387.44C700.635 387.987 700.395 388.82 700.395 389.94C700.395 391.06 700.635 391.9 701.115 392.46C701.608 393.007 702.248 393.28 703.035 393.28ZM721.065 395L714.785 380.9H717.565L722.625 392.74H721.785L726.845 380.9H729.525L723.245 395H721.065ZM734.029 395.2C732.989 395.2 732.089 394.987 731.329 394.56C730.569 394.133 729.976 393.527 729.549 392.74C729.136 391.953 728.929 391.02 728.929 389.94C728.929 388.86 729.136 387.933 729.549 387.16C729.976 386.373 730.569 385.767 731.329 385.34C732.089 384.913 732.989 384.7 734.029 384.7C735.069 384.7 735.969 384.913 736.729 385.34C737.503 385.767 738.096 386.373 738.509 387.16C738.936 387.933 739.149 388.86 739.149 389.94C739.149 391.02 738.936 391.953 738.509 392.74C738.096 393.527 737.503 394.133 736.729 394.56C735.969 394.987 735.069 395.2 734.029 395.2ZM734.029 393.28C734.816 393.28 735.443 393.007 735.909 392.46C736.376 391.9 736.609 391.06 736.609 389.94C736.609 388.82 736.376 387.987 735.909 387.44C735.443 386.893 734.816 386.62 734.029 386.62C733.243 386.62 732.616 386.893 732.149 387.44C731.683 387.987 731.449 388.82 731.449 389.94C731.449 391.06 731.683 391.9 732.149 392.46C732.616 393.007 733.243 393.28 734.029 393.28ZM745.528 395.2C744.328 395.2 743.421 394.887 742.808 394.26C742.194 393.633 741.888 392.693 741.888 391.44V386.78H739.948V384.9H741.888V382.32L744.388 381.68V384.9H747.088V386.78H744.388V391.28C744.388 391.973 744.521 392.46 744.788 392.74C745.054 393.02 745.421 393.16 745.888 393.16C746.141 393.16 746.354 393.14 746.528 393.1C746.714 393.06 746.894 393.007 747.068 392.94V394.92C746.841 395.013 746.588 395.08 746.308 395.12C746.041 395.173 745.781 395.2 745.528 395.2ZM753.568 395.2C751.875 395.2 750.548 394.733 749.588 393.8C748.628 392.867 748.148 391.587 748.148 389.96C748.148 388.907 748.355 387.987 748.768 387.2C749.181 386.413 749.755 385.8 750.488 385.36C751.235 384.92 752.101 384.7 753.088 384.7C754.061 384.7 754.875 384.907 755.528 385.32C756.181 385.733 756.675 386.313 757.008 387.06C757.355 387.807 757.528 388.68 757.528 389.68V390.34H750.168V389.02H755.748L755.408 389.3C755.408 388.367 755.208 387.653 754.808 387.16C754.421 386.667 753.855 386.42 753.108 386.42C752.281 386.42 751.641 386.713 751.188 387.3C750.748 387.887 750.528 388.707 750.528 389.76V390.02C750.528 391.113 750.795 391.933 751.328 392.48C751.875 393.013 752.641 393.28 753.628 393.28C754.201 393.28 754.735 393.207 755.228 393.06C755.735 392.9 756.215 392.647 756.668 392.3L757.408 393.98C756.928 394.367 756.355 394.667 755.688 394.88C755.021 395.093 754.315 395.2 753.568 395.2ZM763.245 395.2C762.378 395.2 761.578 395.1 760.845 394.9C760.125 394.687 759.518 394.393 759.025 394.02L759.725 392.34C760.232 392.687 760.792 392.953 761.405 393.14C762.018 393.327 762.638 393.42 763.265 393.42C763.932 393.42 764.425 393.307 764.745 393.08C765.078 392.853 765.245 392.547 765.245 392.16C765.245 391.853 765.138 391.613 764.925 391.44C764.725 391.253 764.398 391.113 763.945 391.02L761.945 390.64C761.092 390.453 760.438 390.133 759.985 389.68C759.545 389.227 759.325 388.633 759.325 387.9C759.325 387.273 759.492 386.72 759.825 386.24C760.172 385.76 760.658 385.387 761.285 385.12C761.925 384.84 762.672 384.7 763.525 384.7C764.272 384.7 764.972 384.8 765.625 385C766.292 385.2 766.852 385.5 767.305 385.9L766.585 387.52C766.172 387.187 765.698 386.927 765.165 386.74C764.632 386.553 764.112 386.46 763.605 386.46C762.912 386.46 762.405 386.587 762.085 386.84C761.765 387.08 761.605 387.393 761.605 387.78C761.605 388.073 761.698 388.32 761.885 388.52C762.085 388.707 762.392 388.847 762.805 388.94L764.805 389.32C765.698 389.493 766.372 389.8 766.825 390.24C767.292 390.667 767.525 391.253 767.525 392C767.525 392.667 767.345 393.24 766.985 393.72C766.625 394.2 766.125 394.567 765.485 394.82C764.845 395.073 764.098 395.2 763.245 395.2Z" fill="#2E4269"/>
<rect x="625" y="379" width="16" height="16" rx="8" fill="#F69E53"/>
<line opacity="0.2" x1="-4.37114e-08" y1="351.5" x2="797" y2="351.5" stroke="#2E4269"/>
<path d="M78.56 340V338.1L83.24 333.22C83.8267 332.607 84.26 332.04 84.54 331.52C84.82 331 84.96 330.467 84.96 329.92C84.96 329.24 84.7467 328.727 84.32 328.38C83.8933 328.033 83.2733 327.86 82.46 327.86C81.8067 327.86 81.18 327.98 80.58 328.22C79.98 328.447 79.3933 328.807 78.82 329.3L77.98 327.38C78.5533 326.873 79.26 326.467 80.1 326.16C80.9533 325.853 81.8467 325.7 82.78 325.7C84.3 325.7 85.4667 326.04 86.28 326.72C87.0933 327.4 87.5 328.373 87.5 329.64C87.5 330.52 87.2933 331.36 86.88 332.16C86.4667 332.947 85.8267 333.773 84.96 334.64L81.06 338.54V337.86H88.06V340H78.56ZM94.9922 340.2C93.3389 340.2 92.0655 339.573 91.1722 338.32C90.2789 337.053 89.8322 335.253 89.8322 332.92C89.8322 330.56 90.2789 328.767 91.1722 327.54C92.0655 326.313 93.3389 325.7 94.9922 325.7C96.6589 325.7 97.9322 326.313 98.8122 327.54C99.7055 328.767 100.152 330.553 100.152 332.9C100.152 335.247 99.7055 337.053 98.8122 338.32C97.9322 339.573 96.6589 340.2 94.9922 340.2ZM94.9922 338.08C95.8989 338.08 96.5722 337.667 97.0122 336.84C97.4522 336 97.6722 334.687 97.6722 332.9C97.6722 331.113 97.4522 329.82 97.0122 329.02C96.5722 328.207 95.8989 327.8 94.9922 327.8C94.0989 327.8 93.4255 328.207 92.9722 329.02C92.5322 329.82 92.3122 331.113 92.3122 332.9C92.3122 334.687 92.5322 336 92.9722 336.84C93.4255 337.667 94.0989 338.08 94.9922 338.08ZM103.204 340V337.86H106.444V328.06H107.684L103.524 330.54V328.1L107.184 325.9H109.024V337.86H112.064V340H103.204ZM114.697 340L121.537 327.16V328.06H114.057V325.9H123.917V327.82L117.517 340H114.697Z" fill="#2E4269"/>
<path d="M289.56 340V338.1L294.24 333.22C294.827 332.607 295.26 332.04 295.54 331.52C295.82 331 295.96 330.467 295.96 329.92C295.96 329.24 295.747 328.727 295.32 328.38C294.893 328.033 294.273 327.86 293.46 327.86C292.807 327.86 292.18 327.98 291.58 328.22C290.98 328.447 290.393 328.807 289.82 329.3L288.98 327.38C289.553 326.873 290.26 326.467 291.1 326.16C291.953 325.853 292.847 325.7 293.78 325.7C295.3 325.7 296.467 326.04 297.28 326.72C298.093 327.4 298.5 328.373 298.5 329.64C298.5 330.52 298.293 331.36 297.88 332.16C297.467 332.947 296.827 333.773 295.96 334.64L292.06 338.54V337.86H299.06V340H289.56ZM305.992 340.2C304.339 340.2 303.066 339.573 302.172 338.32C301.279 337.053 300.832 335.253 300.832 332.92C300.832 330.56 301.279 328.767 302.172 327.54C303.066 326.313 304.339 325.7 305.992 325.7C307.659 325.7 308.932 326.313 309.812 327.54C310.706 328.767 311.152 330.553 311.152 332.9C311.152 335.247 310.706 337.053 309.812 338.32C308.932 339.573 307.659 340.2 305.992 340.2ZM305.992 338.08C306.899 338.08 307.572 337.667 308.012 336.84C308.452 336 308.672 334.687 308.672 332.9C308.672 331.113 308.452 329.82 308.012 329.02C307.572 328.207 306.899 327.8 305.992 327.8C305.099 327.8 304.426 328.207 303.972 329.02C303.532 329.82 303.312 331.113 303.312 332.9C303.312 334.687 303.532 336 303.972 336.84C304.426 337.667 305.099 338.08 305.992 338.08ZM314.204 340V337.86H317.444V328.06H318.684L314.524 330.54V328.1L318.184 325.9H320.024V337.86H323.064V340H314.204ZM329.977 340.2C328.323 340.2 327.03 339.847 326.097 339.14C325.177 338.433 324.717 337.453 324.717 336.2C324.717 335.213 325.017 334.393 325.617 333.74C326.217 333.087 326.997 332.7 327.957 332.58V333C327.09 332.813 326.39 332.407 325.857 331.78C325.337 331.153 325.077 330.393 325.077 329.5C325.077 328.313 325.51 327.387 326.377 326.72C327.257 326.04 328.457 325.7 329.977 325.7C331.51 325.7 332.71 326.04 333.577 326.72C334.457 327.387 334.897 328.313 334.897 329.5C334.897 330.393 334.643 331.16 334.137 331.8C333.643 332.44 332.97 332.833 332.117 332.98V332.58C333.063 332.713 333.823 333.107 334.397 333.76C334.97 334.4 335.257 335.213 335.257 336.2C335.257 337.453 334.79 338.433 333.857 339.14C332.937 339.847 331.643 340.2 329.977 340.2ZM329.977 338.2C330.95 338.2 331.677 338.02 332.157 337.66C332.637 337.287 332.877 336.74 332.877 336.02C332.877 335.3 332.637 334.76 332.157 334.4C331.677 334.04 330.95 333.86 329.977 333.86C329.017 333.86 328.29 334.04 327.797 334.4C327.317 334.76 327.077 335.3 327.077 336.02C327.077 336.74 327.317 337.287 327.797 337.66C328.29 338.02 329.017 338.2 329.977 338.2ZM329.977 331.86C330.803 331.86 331.43 331.673 331.857 331.3C332.297 330.927 332.517 330.413 332.517 329.76C332.517 329.12 332.297 328.62 331.857 328.26C331.43 327.887 330.803 327.7 329.977 327.7C329.163 327.7 328.537 327.887 328.097 328.26C327.67 328.62 327.457 329.12 327.457 329.76C327.457 330.413 327.67 330.927 328.097 331.3C328.537 331.673 329.163 331.86 329.977 331.86Z" fill="#2E4269"/>
<path d="M500.56 340V338.1L505.24 333.22C505.827 332.607 506.26 332.04 506.54 331.52C506.82 331 506.96 330.467 506.96 329.92C506.96 329.24 506.747 328.727 506.32 328.38C505.893 328.033 505.273 327.86 504.46 327.86C503.807 327.86 503.18 327.98 502.58 328.22C501.98 328.447 501.393 328.807 500.82 329.3L499.98 327.38C500.553 326.873 501.26 326.467 502.1 326.16C502.953 325.853 503.847 325.7 504.78 325.7C506.3 325.7 507.467 326.04 508.28 326.72C509.093 327.4 509.5 328.373 509.5 329.64C509.5 330.52 509.293 331.36 508.88 332.16C508.467 332.947 507.827 333.773 506.96 334.64L503.06 338.54V337.86H510.06V340H500.56ZM516.992 340.2C515.339 340.2 514.066 339.573 513.172 338.32C512.279 337.053 511.832 335.253 511.832 332.92C511.832 330.56 512.279 328.767 513.172 327.54C514.066 326.313 515.339 325.7 516.992 325.7C518.659 325.7 519.932 326.313 520.812 327.54C521.706 328.767 522.152 330.553 522.152 332.9C522.152 335.247 521.706 337.053 520.812 338.32C519.932 339.573 518.659 340.2 516.992 340.2ZM516.992 338.08C517.899 338.08 518.572 337.667 519.012 336.84C519.452 336 519.672 334.687 519.672 332.9C519.672 331.113 519.452 329.82 519.012 329.02C518.572 328.207 517.899 327.8 516.992 327.8C516.099 327.8 515.426 328.207 514.972 329.02C514.532 329.82 514.312 331.113 514.312 332.9C514.312 334.687 514.532 336 514.972 336.84C515.426 337.667 516.099 338.08 516.992 338.08ZM525.204 340V337.86H528.444V328.06H529.684L525.524 330.54V328.1L529.184 325.9H531.024V337.86H534.064V340H525.204ZM539.917 340.2C539.157 340.2 538.403 340.06 537.657 339.78C536.91 339.487 536.27 339.093 535.737 338.6L536.597 336.68C537.09 337.133 537.623 337.473 538.197 337.7C538.77 337.927 539.35 338.04 539.937 338.04C541.123 338.04 542.03 337.633 542.657 336.82C543.297 336.007 543.617 334.793 543.617 333.18V331.68H543.857C543.763 332.347 543.537 332.927 543.177 333.42C542.817 333.913 542.363 334.293 541.817 334.56C541.283 334.813 540.683 334.94 540.017 334.94C539.203 334.94 538.47 334.747 537.817 334.36C537.177 333.973 536.67 333.44 536.297 332.76C535.937 332.067 535.757 331.287 535.757 330.42C535.757 329.5 535.957 328.687 536.357 327.98C536.77 327.273 537.33 326.72 538.037 326.32C538.743 325.907 539.557 325.7 540.477 325.7C542.263 325.7 543.637 326.313 544.597 327.54C545.57 328.753 546.057 330.473 546.057 332.7C546.057 334.287 545.81 335.64 545.317 336.76C544.837 337.88 544.137 338.733 543.217 339.32C542.297 339.907 541.197 340.2 539.917 340.2ZM540.637 332.9C541.13 332.9 541.563 332.793 541.937 332.58C542.31 332.367 542.603 332.067 542.817 331.68C543.03 331.28 543.137 330.827 543.137 330.32C543.137 329.8 543.03 329.347 542.817 328.96C542.603 328.573 542.31 328.273 541.937 328.06C541.563 327.833 541.13 327.72 540.637 327.72C540.143 327.72 539.71 327.833 539.337 328.06C538.963 328.273 538.67 328.573 538.457 328.96C538.257 329.347 538.157 329.8 538.157 330.32C538.157 330.827 538.257 331.28 538.457 331.68C538.67 332.067 538.963 332.367 539.337 332.58C539.71 332.793 540.143 332.9 540.637 332.9Z" fill="#2E4269"/>
<path d="M711.56 340V338.1L716.24 333.22C716.827 332.607 717.26 332.04 717.54 331.52C717.82 331 717.96 330.467 717.96 329.92C717.96 329.24 717.747 328.727 717.32 328.38C716.893 328.033 716.273 327.86 715.46 327.86C714.807 327.86 714.18 327.98 713.58 328.22C712.98 328.447 712.393 328.807 711.82 329.3L710.98 327.38C711.553 326.873 712.26 326.467 713.1 326.16C713.953 325.853 714.847 325.7 715.78 325.7C717.3 325.7 718.467 326.04 719.28 326.72C720.093 327.4 720.5 328.373 720.5 329.64C720.5 330.52 720.293 331.36 719.88 332.16C719.467 332.947 718.827 333.773 717.96 334.64L714.06 338.54V337.86H721.06V340H711.56ZM727.992 340.2C726.339 340.2 725.066 339.573 724.172 338.32C723.279 337.053 722.832 335.253 722.832 332.92C722.832 330.56 723.279 328.767 724.172 327.54C725.066 326.313 726.339 325.7 727.992 325.7C729.659 325.7 730.932 326.313 731.812 327.54C732.706 328.767 733.152 330.553 733.152 332.9C733.152 335.247 732.706 337.053 731.812 338.32C730.932 339.573 729.659 340.2 727.992 340.2ZM727.992 338.08C728.899 338.08 729.572 337.667 730.012 336.84C730.452 336 730.672 334.687 730.672 332.9C730.672 331.113 730.452 329.82 730.012 329.02C729.572 328.207 728.899 327.8 727.992 327.8C727.099 327.8 726.426 328.207 725.972 329.02C725.532 329.82 725.312 331.113 725.312 332.9C725.312 334.687 725.532 336 725.972 336.84C726.426 337.667 727.099 338.08 727.992 338.08ZM735.544 340V338.1L740.224 333.22C740.811 332.607 741.244 332.04 741.524 331.52C741.804 331 741.944 330.467 741.944 329.92C741.944 329.24 741.731 328.727 741.304 328.38C740.878 328.033 740.258 327.86 739.444 327.86C738.791 327.86 738.164 327.98 737.564 328.22C736.964 328.447 736.378 328.807 735.804 329.3L734.964 327.38C735.538 326.873 736.244 326.467 737.084 326.16C737.938 325.853 738.831 325.7 739.764 325.7C741.284 325.7 742.451 326.04 743.264 326.72C744.078 327.4 744.484 328.373 744.484 329.64C744.484 330.52 744.278 331.36 743.864 332.16C743.451 332.947 742.811 333.773 741.944 334.64L738.044 338.54V337.86H745.044V340H735.544ZM751.977 340.2C750.323 340.2 749.05 339.573 748.157 338.32C747.263 337.053 746.817 335.253 746.817 332.92C746.817 330.56 747.263 328.767 748.157 327.54C749.05 326.313 750.323 325.7 751.977 325.7C753.643 325.7 754.917 326.313 755.797 327.54C756.69 328.767 757.137 330.553 757.137 332.9C757.137 335.247 756.69 337.053 755.797 338.32C754.917 339.573 753.643 340.2 751.977 340.2ZM751.977 338.08C752.883 338.08 753.557 337.667 753.997 336.84C754.437 336 754.657 334.687 754.657 332.9C754.657 331.113 754.437 329.82 753.997 329.02C753.557 328.207 752.883 327.8 751.977 327.8C751.083 327.8 750.41 328.207 749.957 329.02C749.517 329.82 749.297 331.113 749.297 332.9C749.297 334.687 749.517 336 749.957 336.84C750.41 337.667 751.083 338.08 751.977 338.08Z" fill="#2E4269"/>
<defs>
<linearGradient id="paint0_linear_1404_1625" x1="438.5" y1="12.8851" x2="438.5" y2="426.333" gradientUnits="userSpaceOnUse">
<stop stop-color="#FAF9FF"/>
<stop offset="1" stop-color="white" stop-opacity="0"/>
</linearGradient>
<linearGradient id="paint1_linear_1404_1625" x1="520" y1="91" x2="520" y2="281" gradientUnits="userSpaceOnUse">
<stop stop-color="#2E4269"/>
<stop offset="1" stop-color="#2E4269" stop-opacity="0"/>
</linearGradient>
</defs>
</svg>
