<svg width="134" height="38" viewBox="0 0 134 38" fill="none" xmlns="http://www.w3.org/2000/svg">
<path d="M40.54 30L43.9 8.85H53.71C56.51 8.85 58.51 9.47 59.71 10.71C60.93 11.93 61.36 13.67 61 15.93C60.8 17.23 60.32 18.37 59.56 19.35C58.8 20.31 57.81 21.06 56.59 21.6C55.37 22.14 53.97 22.41 52.39 22.41L52.45 21.54H54.04C54.92 21.54 55.66 21.8 56.26 22.32C56.88 22.82 57.36 23.48 57.7 24.3L60.07 30H53.32L50.74 23.34C50.62 23.04 50.36 22.83 49.96 22.71C49.58 22.57 49.2 22.5 48.82 22.5H48.22L47.02 30H40.54ZM48.94 17.97H51.85C52.77 17.97 53.47 17.8 53.95 17.46C54.43 17.12 54.72 16.62 54.82 15.96C54.94 15.2 54.79 14.65 54.37 14.31C53.95 13.95 53.29 13.77 52.39 13.77H49.6L48.94 17.97ZM68.1388 30.36C66.7388 30.36 65.5488 29.99 64.5688 29.25C63.5888 28.51 62.8888 27.49 62.4688 26.19C62.0488 24.89 61.9688 23.41 62.2288 21.75C62.6288 19.25 63.5488 17.39 64.9888 16.17C66.4288 14.95 68.1288 14.34 70.0888 14.34C71.2088 14.34 72.1888 14.59 73.0288 15.09C73.8888 15.57 74.3988 16.2 74.5588 16.98L74.2888 17.16L75.0388 14.7H81.0388C80.8388 15.42 80.6588 16.15 80.4988 16.89C80.3588 17.61 80.2288 18.33 80.1088 19.05L78.3688 30H72.1888L72.5788 27.54H73.0888C72.6688 28.38 72.0288 29.06 71.1688 29.58C70.3288 30.1 69.3188 30.36 68.1388 30.36ZM70.4788 25.77C71.1988 25.77 71.8088 25.53 72.3088 25.05C72.8088 24.55 73.1488 23.75 73.3288 22.65C73.5488 21.25 73.4588 20.28 73.0588 19.74C72.6588 19.2 72.0788 18.93 71.3188 18.93C70.5788 18.93 69.9588 19.17 69.4588 19.65C68.9788 20.13 68.6488 20.93 68.4688 22.05C68.2488 23.45 68.3388 24.42 68.7388 24.96C69.1388 25.5 69.7188 25.77 70.4788 25.77ZM85.5191 30L81.2891 14.7H87.5891L89.5991 23.88H88.4591L93.6191 14.7H99.9191L90.7091 30H85.5191ZM106.661 30.36C104.641 30.36 102.971 29.99 101.651 29.25C100.331 28.49 99.3912 27.46 98.8312 26.16C98.2712 24.84 98.1212 23.34 98.3812 21.66C98.6212 20.18 99.1212 18.9 99.8812 17.82C100.641 16.72 101.611 15.87 102.791 15.27C103.991 14.65 105.361 14.34 106.901 14.34C108.501 14.34 109.821 14.69 110.861 15.39C111.901 16.09 112.641 17.04 113.081 18.24C113.521 19.44 113.611 20.81 113.351 22.35L113.171 23.46H103.391L103.811 20.64H108.941L108.341 21.21C108.501 20.23 108.431 19.52 108.131 19.08C107.831 18.62 107.371 18.39 106.751 18.39C106.291 18.39 105.901 18.51 105.581 18.75C105.261 18.97 105.001 19.28 104.801 19.68C104.601 20.06 104.461 20.49 104.381 20.97L104.141 22.5C104.001 23.54 104.181 24.35 104.681 24.93C105.201 25.49 106.171 25.77 107.591 25.77C108.211 25.77 108.801 25.7 109.361 25.56C109.941 25.4 110.571 25.15 111.251 24.81L112.721 28.86C111.861 29.38 110.921 29.76 109.901 30C108.881 30.24 107.801 30.36 106.661 30.36ZM114.332 30L116.072 19.05C116.172 18.33 116.262 17.61 116.342 16.89C116.422 16.15 116.482 15.42 116.522 14.7H122.522L122.462 17.13L122.132 17.16C122.732 16.22 123.492 15.52 124.412 15.06C125.352 14.58 126.372 14.34 127.472 14.34C129.252 14.34 130.542 14.9 131.342 16.02C132.142 17.14 132.352 18.89 131.972 21.27L130.592 30H124.352L125.732 21.21C125.852 20.45 125.782 19.91 125.522 19.59C125.262 19.25 124.902 19.08 124.442 19.08C123.762 19.08 123.202 19.3 122.762 19.74C122.322 20.18 122.042 20.76 121.922 21.48L120.572 30H114.332Z" fill="#FEBF2D"/>
<path d="M28.8822 16.9347C29.0912 16.0028 28.9797 15.1219 28.872 14.2699C28.7799 13.5423 28.6931 12.8553 28.8244 12.2173C29.1358 10.7049 28.1704 9.04487 27.2946 7.7676C26.3176 6.34277 25.2603 6.14065 23.8732 6.01062C23.7982 6.00362 23.7216 6 23.6455 6C22.7148 6 21.9372 6.52092 21.5195 6.80076C21.4111 6.87334 21.2991 6.94841 21.2663 6.95501C21.2143 6.96539 21.0926 6.967 20.9387 6.96909C20.5253 6.97456 19.8335 6.98382 19.0097 7.16027C18.207 7.3323 17.5638 7.74113 17.5758 8.07167C17.5803 8.19687 17.6718 8.3582 18.0825 8.41557C18.943 8.53586 19.7038 8.76896 20.315 8.9562C20.4359 8.99321 20.5493 9.02797 20.6544 9.05895C21.3158 9.25415 21.9268 9.52088 22.136 10.6268C22.2815 11.3959 20.9592 12.2783 19.7927 13.057C19.3088 13.3799 18.8518 13.6849 18.4837 13.984C17.2 15.027 14.7523 17.1409 13.9682 17.8838C13.225 18.5879 6.97457 22.8735 5.29443 23.6931C3.57751 24.5306 1.90421 25.8435 1.48492 26.682C1.39094 26.87 1.37083 26.9891 1.41959 27.068C1.44091 27.1025 1.48492 27.1435 1.57367 27.1435C1.67932 27.1435 1.82399 27.0826 1.94879 27.0235C1.94895 27.0387 1.95177 27.0542 1.95836 27.07C1.99562 27.1601 2.11567 27.1716 2.21609 27.1716C2.49054 27.1716 3.06263 27.0588 3.76032 26.8682C3.50976 27.0534 3.01259 27.3723 2.56022 27.6624C0.772022 28.8098 -0.0220638 29.367 0.00046571 29.6365C0.012857 29.7857 0.111504 29.9636 0.511001 29.9636C0.756252 29.9636 1.05509 29.9006 1.29527 29.85C1.41991 29.8238 1.52789 29.801 1.60248 29.7923C1.57528 29.8494 1.50552 29.9475 1.45604 30.0171C1.29575 30.2426 1.13 30.4758 1.24804 30.6233C1.28344 30.6677 1.34371 30.6892 1.43206 30.6892C1.69638 30.6892 2.2609 30.4932 2.80684 30.3035C3.1966 30.1681 3.56472 30.0402 3.7872 29.9957C4.12691 29.9278 5.77366 29.075 7.3661 28.2503C8.55421 27.635 9.90083 26.9376 10.0457 26.9217C10.3279 26.9217 12.6077 26.7553 14.0456 26.3444C14.3661 26.2529 14.7085 26.2064 15.0632 26.2064C15.9257 26.2064 16.7583 26.4746 17.4716 26.7409C17.4671 26.9146 17.4628 27.1273 17.4583 27.3885C17.4461 28.105 17.4407 28.8471 17.4425 29.0432C17.4449 29.3171 17.9621 29.8005 18.6924 30.4533C18.9929 30.7219 19.3616 31.0516 19.4294 31.1702C19.307 31.2464 19.1194 31.2486 18.8867 31.2514C18.4802 31.2563 17.9235 31.263 17.3461 31.7033C17.0099 31.9597 16.7876 32.3264 16.7371 32.505C16.7324 32.5215 16.7183 32.5716 16.7493 32.6127C16.7666 32.6355 16.7932 32.6486 16.8222 32.6486C16.8465 32.6486 16.8708 32.6396 16.8971 32.6211L16.9564 32.5787C17.1447 32.4437 17.5857 32.1277 17.8226 32.0376C18.1428 31.9157 18.378 31.8661 18.6347 31.8661C18.9716 31.8661 19.3699 31.9527 19.9869 32.1125C20.3648 32.2104 20.6873 32.258 20.9731 32.258C21.3447 32.258 21.6146 32.1793 21.9002 32.0961C22.2326 31.9992 22.5762 31.899 23.138 31.899C23.2423 31.899 23.3524 31.9025 23.4652 31.9096C24.0807 31.9482 24.6321 32.2686 24.8971 32.4226C25.0112 32.489 25.0458 32.509 25.0831 32.509L25.1399 32.5067L25.1612 32.4593C25.1891 32.3972 25.1541 32.3578 24.9857 32.1681C24.7027 31.8495 24.438 31.6546 24.1822 31.5286C24.3386 31.4982 24.483 31.4565 24.6315 31.4132C24.9638 31.3164 25.3074 31.2162 25.8691 31.2162C25.9735 31.2162 26.0836 31.2197 26.1964 31.2268C26.8118 31.2654 27.3633 31.5858 27.6283 31.7398C27.7425 31.8061 27.777 31.8261 27.8143 31.8261L27.8711 31.8238L27.8924 31.7764C27.9204 31.7143 27.8853 31.6749 27.7169 31.4852C27.1179 30.8107 26.5993 30.6864 26.0769 30.6101C25.8717 30.5803 25.7166 30.5113 25.6997 30.4426C25.6858 30.3864 25.762 30.2912 25.9036 30.188C26.1548 30.0051 26.4074 29.9123 26.6545 29.9123C27.0923 29.9123 27.3647 30.1997 27.3943 30.309C27.4077 30.3585 27.4468 30.3761 27.4765 30.3761C27.5066 30.3761 27.5465 30.3577 27.5593 30.3062C27.5835 30.21 27.5545 29.7883 27.1983 29.5975C27.0204 29.5022 26.745 29.4497 26.423 29.4497C25.6621 29.4497 24.8343 29.7173 24.1522 30.1748C24.0163 30.1472 23.8608 30.1324 23.6918 30.1324C23.6449 30.1324 23.5977 30.1339 23.5504 30.1359C22.9677 29.6702 21.9425 28.5862 21.8834 28.2175C21.8446 27.9744 21.8219 27.2064 21.8219 26.4637C21.8219 26.4608 21.8219 26.4582 21.8219 26.4554C22.3046 26.2153 22.7947 25.9324 23.3631 25.598C26.2083 23.9247 28.4966 18.6552 28.8822 16.9347ZM20.1813 27.2639C20.1749 27.7731 20.1724 28.2154 20.1737 28.3605C20.1761 28.6343 20.6932 29.1176 21.4235 29.7705C21.7075 30.0244 22.0521 30.3326 22.1464 30.4658C22.0825 30.493 22.0191 30.5216 21.9563 30.5518C21.8591 30.5653 21.7456 30.5671 21.6179 30.5686C21.3547 30.5718 21.0285 30.5765 20.6745 30.6983C20.083 30.1873 19.2169 29.2402 19.1624 28.9006C19.133 28.7164 19.1222 28.2305 19.1161 27.6828C19.351 27.6022 19.7009 27.4739 20.1813 27.2639Z" fill="#FEBF2D"/>
</svg>
